<svg width="40" height="40" viewBox="0 0 40 40" fill="none" xmlns="http://www.w3.org/2000/svg">
<g clip-path="url(#clip0_2939_43428)">
<rect x="0.5" y="0.5" width="39" height="39" rx="19.5" fill="white" stroke="#CED0D4"/>
<path d="M15.0294 28H11.2976V15.9824H15.0294V28ZM13.1613 14.3431C11.9681 14.3431 11 13.3544 11 12.1613C11 10.9681 11.9675 10 13.1613 10C14.3551 10 15.3226 10.9675 15.3226 12.1613C15.3226 13.3544 14.3544 14.3431 13.1613 14.3431ZM28.9961 28H25.2727V22.15C25.2727 20.7556 25.2444 18.9679 23.3326 18.9679C21.3924 18.9679 21.0948 20.4824 21.0948 22.0497V28H17.3669V15.9824H20.9456V17.6217H20.9977C21.4959 16.6774 22.7129 15.6809 24.5283 15.6809C28.3051 15.6809 28.9994 18.1681 28.9994 21.3985V28H28.9961Z" fill="#15161A"/>
</g>
<defs>
<clipPath id="clip0_2939_43428">
<rect width="40" height="40" fill="white"/>
</clipPath>
</defs>
</svg>
